M48
;GenerationSoftware,Autodesk,EAGLE,9.6.2*%
;CreationDate,2022-03-29T11:39:31Z*%
FMAT,2
ICI,OFF
METRIC,TZ,000.000
T5C0.300
T4C0.400
T3C0.650
T2C1.016
T1C3.302
%
G90
M71
T1
X48768Y84303
X133096Y84303
X2540Y40615
X40640Y40615
X2540Y2540
X40640Y2540
X94996Y46228
X133096Y46228
X48768Y40615
X86868Y40615
X48768Y2540
X86868Y2540
X94996Y84303
X86868Y84303
X94996Y40615
X133096Y40615
X94996Y2540
X133096Y2540
X48768Y46228
X86868Y46228
X2540Y84303
X40640Y84303
X2540Y46228
X40640Y46228
T2
X126746Y85598
X93726Y65278
X93726Y67818
X93726Y70358
X93726Y72898
X93726Y75438
X93726Y77978
X106426Y44958
X129286Y85598
X108966Y44958
X111506Y44958
X114046Y44958
X116586Y44958
X119126Y44958
X121666Y44958
X124206Y44958
X126746Y44958
X1270Y21590
X1270Y24130
X1270Y26670
X1270Y29210
X1270Y31750
X1270Y34290
X13970Y1270
X16510Y1270
X19050Y1270
X21590Y1270
X24130Y1270
X26670Y1270
X29210Y1270
X31750Y1270
X34290Y1270
X13970Y41910
X16510Y41910
X19050Y41910
X21590Y41910
X24130Y41910
X26670Y41910
X29210Y41910
X31750Y41910
X34290Y41910
X36830Y41910
X106426Y85598
X108966Y85598
X111506Y85598
X114046Y85598
X47498Y21590
X47498Y24130
X47498Y26670
X47498Y29210
X47498Y31750
X47498Y34290
X60198Y1270
X62738Y1270
X65278Y1270
X67818Y1270
X70358Y1270
X72898Y1270
X75438Y1270
X77978Y1270
X80518Y1270
X60198Y41910
X62738Y41910
X65278Y41910
X67818Y41910
X70358Y41910
X72898Y41910
X75438Y41910
X77978Y41910
X80518Y41910
X83058Y41910
X116586Y85598
X119126Y85598
X121666Y85598
X124206Y85598
X93726Y21590
X93726Y24130
X93726Y26670
X93726Y29210
X93726Y31750
X93726Y34290
X106426Y1270
X108966Y1270
X111506Y1270
X114046Y1270
X116586Y1270
X119126Y1270
X121666Y1270
X124206Y1270
X126746Y1270
X106426Y41910
X108966Y41910
X111506Y41910
X114046Y41910
X116586Y41910
X119126Y41910
X121666Y41910
X124206Y41910
X126746Y41910
X129286Y41910
X1270Y65278
X1270Y67818
X1270Y70358
X1270Y72898
X1270Y75438
X1270Y77978
X13970Y44958
X16510Y44958
X19050Y44958
X21590Y44958
X24130Y44958
X26670Y44958
X29210Y44958
X31750Y44958
X34290Y44958
X13970Y85598
X16510Y85598
X19050Y85598
X21590Y85598
X24130Y85598
X26670Y85598
X29210Y85598
X31750Y85598
X34290Y85598
X36830Y85598
X47498Y65278
X47498Y67818
X47498Y70358
X47498Y72898
X47498Y75438
X47498Y77978
X60198Y44958
X62738Y44958
X65278Y44958
X67818Y44958
X70358Y44958
X72898Y44958
X75438Y44958
X77978Y44958
X80518Y44958
X60198Y85598
X62738Y85598
X65278Y85598
X67818Y85598
X70358Y85598
X72898Y85598
X75438Y85598
X77978Y85598
X80518Y85598
X83058Y85598
T3
X4905Y15590
X4905Y9810
X51133Y15590
X51133Y9810
X97361Y15590
X97361Y9810
X4905Y59278
X4905Y53498
X51133Y59278
X51133Y53498
X97361Y59278
X97361Y53498
T4
X1255Y17018
X1255Y8382
X5435Y8382
X5435Y17018
X47483Y17018
X47483Y8382
X51663Y8382
X51663Y17018
X93711Y17018
X93711Y8382
X97891Y8382
X97891Y17018
X1255Y60706
X47483Y60706
X47483Y52070
X51663Y52070
X51663Y60706
X1255Y52070
X93711Y60706
X5435Y52070
X97891Y52070
X97891Y60706
X5435Y60706
X93711Y52070
T5
X69977Y14859
X61214Y27432
X73152Y27432
X71628Y24384
X74803Y24384
X78486Y27686
X76073Y24384
X77343Y24384
X80137Y24130
X83058Y24130
X83058Y22860
X83058Y21590
X84328Y21590
X85598Y21590
X86868Y21590
X71628Y26670
X71628Y25527
X75438Y26670
X76962Y26670
X78486Y26670
X80899Y23114
X81788Y26670
X81788Y28003
X83058Y26670
X83058Y27940
X83058Y29210
X84328Y29210
X85598Y29210
X86868Y29210
X56642Y35560
X56642Y39497
X53213Y16002
X53213Y9398
X48768Y6477
X69787Y11176
X71374Y11176
X63881Y15367
X65151Y16637
X66421Y17907
X69088Y19050
X65532Y12446
X66802Y13716
X69088Y15621
X71628Y19050
X70993Y15621
X78740Y19177
X79502Y17399
X79502Y15621
X53594Y3937
X52832Y5080
X48768Y11430
X48768Y13970
X50546Y14986
X50546Y10414
X64008Y2540
X66548Y2540
X53848Y1270
X57531Y4064
X58928Y5080
X58928Y7620
X61468Y7620
X55118Y8890
X55118Y11430
X55118Y15240
X58928Y39497
X61468Y39497
X57658Y36830
X61785Y36830
X69088Y39370
X69088Y36068
X74168Y39370
X74422Y33973
X74168Y32004
X76708Y35560
X81788Y39370
X48768Y16510
X48768Y17780
X48768Y8890
X48768Y7620
X81788Y36830
X79248Y35560
X67818Y25400
X67818Y22860
X64008Y25400
X64008Y22860
X64008Y20320
X64008Y17780
X56388Y21590
X58928Y21590
X61468Y20320
X56388Y22860
X58928Y22860
X52578Y22860
X52578Y20320
X58928Y26670
X56388Y26670
X57658Y30480
X58928Y29210
X61849Y32131
X63373Y32131
X52578Y27940
X52578Y30480
X52578Y35560
X56388Y41910
X53848Y41910
X67564Y32131
X66421Y36068
X83058Y19050
X83058Y15240
X83058Y11430
X83058Y7620
X83058Y3810
X79248Y3810
X76708Y3810
X74168Y3810
X71628Y3810
X69088Y3810
X69088Y2540
X71628Y6350
X74168Y6350
X76708Y10160
X68834Y6096
X79248Y8890
X79248Y12319
X53086Y18288
X52578Y33020
X76708Y6350
X79248Y39370
X76708Y33020
X79248Y6350
X56388Y1270
X81407Y3175
X64008Y39370
X66548Y39370
X71628Y39370
X71628Y36830
X76708Y39370
X79502Y14224
X75438Y29210
X60706Y10414
X62738Y14097
X52578Y24130
X81788Y34290
X80518Y33020
X79248Y31750
X78804Y30480
X81407Y29464
X82931Y32258
X84328Y39370
X84328Y36830
X84201Y33909
X78804Y29210
X81788Y30988
X71247Y32448
X60198Y32131
X59182Y37465
X65913Y32131
X53594Y39751
X64008Y5080
X66802Y5080
X71247Y34163
X58928Y32131
X58928Y34417
X65151Y27813
X65278Y31369
X71247Y35306
X69342Y34925
X53848Y13508
X51308Y11938
X61087Y4699
X61087Y5461
X71755Y13589
X56261Y13335
X78740Y18034
X56261Y12065
X78740Y16637
X86106Y15748
X53721Y11049
X52832Y6477
X78486Y11557
X69342Y32885
X74168Y32893
X78613Y13462
X68326Y32921
X57046Y31750
X78613Y14986
X56284Y29210
X68455Y32112
X54610Y39751
X63500Y5560
X66141Y5562
X69342Y33909
X61214Y28956
X61214Y33909
X71615Y22593
X74168Y35560
X99441Y25400
X98806Y25400
X129286Y17145
X105156Y10414
X100076Y12700
X109347Y6985
X112268Y8890
X116205Y14859
X107442Y27432
X119380Y27432
X117856Y24384
X121031Y24384
X124714Y27686
X122301Y24384
X123571Y24384
X126365Y24130
X129286Y24130
X129286Y22860
X129286Y21590
X130556Y21590
X131826Y21590
X133096Y21590
X117856Y26670
X117856Y25527
X121666Y26670
X123190Y26670
X124714Y26670
X127127Y23114
X128016Y26670
X128016Y28003
X129286Y26670
X129286Y27940
X129286Y29210
X130556Y29210
X131826Y29210
X133096Y29210
X102870Y35560
X102870Y39497
X99441Y16002
X99441Y9398
X94996Y6477
X116014Y11176
X117602Y11176
X110109Y15367
X111379Y16637
X112649Y17907
X115316Y19050
X111760Y12446
X113030Y13716
X115316Y15621
X117856Y19050
X117221Y15621
X124968Y19177
X125730Y17399
X125730Y15621
X99822Y3937
X99060Y5080
X94996Y11430
X94996Y13970
X96774Y14986
X96774Y10414
X110236Y2540
X112776Y2540
X100076Y1270
X103759Y4064
X105156Y5080
X105156Y7620
X107696Y7620
X101346Y8890
X101346Y11430
X101346Y15240
X105156Y39497
X107696Y39497
X103886Y36830
X108013Y36830
X115316Y39370
X115316Y36068
X120396Y39370
X120650Y33973
X120396Y32004
X122936Y35560
X128016Y39370
X94996Y16510
X94996Y17780
X94996Y8890
X94996Y7620
X128016Y36830
X125476Y35560
X114046Y25400
X114046Y22860
X110236Y25400
X110236Y22860
X110236Y20320
X110236Y17780
X102616Y21590
X105156Y21590
X107696Y20320
X102616Y22860
X105156Y22860
X98806Y22860
X98806Y20320
X105156Y26670
X102616Y26670
X103886Y30480
X105156Y29210
X108077Y32131
X109601Y32131
X98806Y27940
X98806Y30480
X98806Y35560
X102616Y41910
X100076Y41910
X113792Y32131
X112649Y36068
X129286Y19050
X129286Y15240
X129286Y11430
X129286Y7620
X129286Y3810
X125476Y3810
X122936Y3810
X120396Y3810
X117856Y3810
X115316Y3810
X115316Y2540
X117856Y6350
X120396Y6350
X122936Y10160
X115062Y6096
X125476Y8890
X125476Y12319
X99314Y18288
X98806Y33020
X122936Y6350
X125476Y39370
X122936Y33020
X125476Y6350
X102616Y1270
X127635Y3175
X110236Y39370
X112776Y39370
X117856Y39370
X117856Y36830
X122936Y39370
X125730Y14224
X121666Y29210
X106934Y10414
X108966Y14097
X98806Y24130
X128016Y34290
X126746Y33020
X125476Y31750
X125031Y30480
X127635Y29464
X129159Y32258
X130556Y39370
X130556Y36830
X130429Y33909
X125031Y29210
X128016Y30988
X117475Y32448
X106426Y32131
X105410Y37465
X112141Y32131
X99822Y39751
X110236Y5080
X113030Y5080
X117475Y34163
X105156Y32131
X105156Y34417
X111379Y27813
X111506Y31369
X117475Y35306
X115570Y34925
X100076Y13508
X97536Y11938
X107315Y4699
X107315Y5461
X117983Y13589
X102489Y13335
X124968Y18034
X102489Y12065
X124968Y16637
X132334Y15748
X99949Y11049
X99060Y6477
X124714Y11557
X115570Y32885
X120396Y32893
X124841Y13462
X114554Y32921
X103274Y31750
X124841Y14986
X102512Y29210
X114683Y32112
X100838Y39751
X109728Y5560
X112369Y5562
X115570Y33909
X107442Y28956
X107442Y33909
X117843Y22593
X120396Y35560
X6985Y69088
X6350Y69088
X36830Y60833
X12700Y54102
X7620Y56388
X16891Y50673
X19812Y52578
X23749Y58547
X14986Y71120
X26924Y71120
X25400Y68072
X28575Y68072
X32258Y71374
X29845Y68072
X31115Y68072
X33909Y67818
X36830Y67818
X36830Y66548
X36830Y65278
X38100Y65278
X39370Y65278
X40640Y65278
X25400Y70358
X25400Y69215
X29210Y70358
X30734Y70358
X32258Y70358
X34671Y66802
X35560Y70358
X35560Y71692
X36830Y70358
X36830Y71628
X36830Y72898
X38100Y72898
X39370Y72898
X40640Y72898
X10414Y79248
X10414Y83185
X6985Y59690
X6985Y53086
X2540Y50165
X23558Y54864
X25146Y54864
X17653Y59055
X18923Y60325
X20193Y61595
X22860Y62738
X19304Y56134
X20574Y57404
X22860Y59309
X25400Y62738
X24765Y59309
X32512Y62865
X33274Y61087
X33274Y59309
X7366Y47625
X6604Y48768
X2540Y55118
X2540Y57658
X4318Y58674
X4318Y54102
X17780Y46228
X20320Y46228
X7620Y44958
X11303Y47752
X12700Y48768
X12700Y51308
X15240Y51308
X8890Y52578
X8890Y55118
X8890Y58928
X12700Y83185
X15240Y83185
X11430Y80518
X15557Y80518
X22860Y83058
X22860Y79756
X27940Y83058
X28194Y77661
X27940Y75692
X30480Y79248
X35560Y83058
X2540Y60198
X2540Y61468
X2540Y52578
X2540Y51308
X35560Y80518
X33020Y79248
X21590Y69088
X21590Y66548
X17780Y69088
X17780Y66548
X17780Y64008
X17780Y61468
X10160Y65278
X12700Y65278
X15240Y64008
X10160Y66548
X12700Y66548
X6350Y66548
X6350Y64008
X12700Y70358
X10160Y70358
X11430Y74168
X12700Y72898
X25527Y13589
X17145Y75819
X6350Y71628
X6350Y74168
X6350Y79248
X10160Y85598
X7620Y85598
X21336Y75819
X20193Y79756
X36830Y62738
X36830Y58928
X36830Y55118
X36830Y51308
X36830Y47498
X33020Y47498
X30480Y47498
X27940Y47498
X25400Y47498
X22860Y47498
X22860Y46228
X25400Y50038
X27940Y50038
X30480Y53848
X22606Y49784
X33020Y52578
X33020Y56007
X6858Y61976
X6350Y76708
X30480Y50038
X33020Y83058
X30480Y76708
X33020Y50038
X10160Y44958
X35179Y46863
X17780Y83058
X20320Y83058
X25400Y83058
X25400Y80518
X30480Y83058
X33274Y57912
X29210Y72898
X14478Y54102
X16510Y57785
X6350Y67818
X35560Y77978
X34290Y76708
X33020Y75438
X32575Y74168
X35179Y73152
X36703Y75946
X38100Y83058
X38100Y80518
X37973Y77597
X32575Y72898
X35560Y74676
X25019Y76137
X13970Y75819
X12954Y81153
X19685Y75819
X7366Y83439
X17780Y48768
X20574Y48768
X25019Y77851
X12700Y75819
X12700Y78105
X18923Y71501
X19050Y75057
X25019Y78994
X23114Y78613
X7620Y57196
X5080Y55626
X14859Y48387
X14859Y49149
X25527Y57277
X10033Y57023
X32512Y61722
X10033Y55753
X32512Y60325
X39878Y59436
X7493Y54737
X6604Y50165
X32258Y55245
X23114Y76573
X27940Y76581
X32385Y57150
X22098Y76609
X10818Y75438
X32385Y58674
X10056Y72898
X22227Y75800
X8382Y83439
X17272Y49248
X19913Y49250
X23114Y77597
X14986Y72644
X14986Y77597
X25387Y66281
X27940Y79248
X53213Y69088
X52578Y69088
X83058Y60833
X58928Y54102
X53848Y56388
X63119Y50673
X66040Y52578
X69977Y58547
X61214Y71120
X73152Y71120
X71628Y68072
X74803Y68072
X78486Y71374
X76073Y68072
X77343Y68072
X80137Y67818
X83058Y67818
X83058Y66548
X83058Y65278
X84328Y65278
X85598Y65278
X86868Y65278
X71628Y70358
X71628Y69215
X75438Y70358
X76962Y70358
X78486Y70358
X80899Y66802
X81788Y70358
X81788Y71692
X83058Y70358
X83058Y71628
X83058Y72898
X84328Y72898
X85598Y72898
X86868Y72898
X56642Y79248
X56642Y83185
X53213Y59690
X53213Y53086
X48768Y50165
X69787Y54864
X71374Y54864
X63881Y59055
X65151Y60325
X66421Y61595
X69088Y62738
X65532Y56134
X66802Y57404
X69088Y59309
X71628Y62738
X70993Y59309
X78740Y62865
X79502Y61087
X79502Y59309
X53594Y47625
X52832Y48768
X48768Y55118
X48768Y57658
X50546Y58674
X50546Y54102
X64008Y46228
X66548Y46228
X53848Y44958
X57531Y47752
X58928Y48768
X58928Y51308
X61468Y51308
X55118Y52578
X55118Y55118
X55118Y58928
X58928Y83185
X61468Y83185
X57658Y80518
X61785Y80518
X69088Y83058
X69088Y79756
X74168Y83058
X74422Y77661
X74168Y75692
X76708Y79248
X81788Y83058
X48768Y60198
X48768Y61468
X48768Y52578
X48768Y51308
X81788Y80518
X79248Y79248
X67818Y69088
X67818Y66548
X64008Y69088
X64008Y66548
X64008Y64008
X64008Y61468
X56388Y65278
X58928Y65278
X61468Y64008
X56388Y66548
X58928Y66548
X52578Y66548
X52578Y64008
X58928Y70358
X56388Y70358
X57658Y74168
X58928Y72898
X61849Y75819
X63373Y75819
X52578Y71628
X52578Y74168
X52578Y79248
X56388Y85598
X53848Y85598
X67564Y75819
X66421Y79756
X83058Y62738
X83058Y58928
X83058Y55118
X83058Y51308
X83058Y47498
X79248Y47498
X76708Y47498
X74168Y47498
X71628Y47498
X69088Y47498
X69088Y46228
X71628Y50038
X74168Y50038
X76708Y53848
X68834Y49784
X79248Y52578
X79248Y56007
X53086Y61976
X52578Y76708
X76708Y50038
X79248Y83058
X76708Y76708
X79248Y50038
X56388Y44958
X81407Y46863
X64008Y83058
X66548Y83058
X71628Y83058
X71628Y80518
X76708Y83058
X79502Y57912
X75438Y72898
X60706Y54102
X62738Y57785
X52578Y67818
X81788Y77978
X80518Y76708
X79248Y75438
X78804Y74168
X81407Y73152
X82931Y75946
X84328Y83058
X84328Y80518
X84201Y77597
X78804Y72898
X81788Y74676
X71247Y76137
X60198Y75819
X59182Y81153
X65913Y75819
X53594Y83439
X64008Y48768
X66802Y48768
X71247Y77851
X58928Y75819
X58928Y78105
X65151Y71501
X65278Y75057
X71247Y78994
X69342Y78613
X53848Y57196
X51308Y55626
X61087Y48387
X61087Y49149
X71755Y57277
X56261Y57023
X78740Y61722
X56261Y55753
X78740Y60325
X86106Y59436
X53721Y54737
X52832Y50165
X78486Y55245
X69342Y76573
X74168Y76581
X78613Y57150
X68326Y76609
X57046Y75438
X78613Y58674
X56284Y72898
X68455Y75800
X54610Y83439
X63500Y49248
X66141Y49250
X69342Y77597
X61214Y72644
X61214Y77597
X71615Y66281
X74168Y79248
X99441Y69088
X98806Y69088
X129286Y60833
X105156Y54102
X100076Y56388
X109347Y50673
X112268Y52578
X116205Y58547
X107442Y71120
X119380Y71120
X117856Y68072
X121031Y68072
X124714Y71374
X122301Y68072
X123571Y68072
X126365Y67818
X129286Y67818
X129286Y66548
X129286Y65278
X130556Y65278
X131826Y65278
X133096Y65278
X117856Y70358
X117856Y69215
X121666Y70358
X123190Y70358
X124714Y70358
X127127Y66802
X128016Y70358
X128016Y71692
X129286Y70358
X129286Y71628
X129286Y72898
X130556Y72898
X131826Y72898
X133096Y72898
X102870Y79248
X102870Y83185
X99441Y59690
X99441Y53086
X94996Y50165
X116014Y54864
X117602Y54864
X110109Y59055
X111379Y60325
X112649Y61595
X115316Y62738
X111760Y56134
X113030Y57404
X115316Y59309
X117856Y62738
X117221Y59309
X124968Y62865
X125730Y61087
X125730Y59309
X99822Y47625
X6985Y25400
X94996Y55118
X94996Y57658
X96774Y58674
X96774Y54102
X110236Y46228
X112776Y46228
X100076Y44958
X103759Y47752
X105156Y48768
X105156Y51308
X107696Y51308
X101346Y52578
X101346Y55118
X101346Y58928
X105156Y83185
X107696Y83185
X103886Y80518
X108013Y80518
X115316Y83058
X115316Y79756
X120396Y83058
X120650Y77661
X120396Y75692
X122936Y79248
X128016Y83058
X94996Y60198
X94996Y61468
X94996Y52578
X94996Y51308
X128016Y80518
X125476Y79248
X114046Y69088
X114046Y66548
X110236Y69088
X110236Y66548
X110236Y64008
X110236Y61468
X102616Y65278
X105156Y65278
X107696Y64008
X102616Y66548
X105156Y66548
X98806Y66548
X98806Y64008
X105156Y70358
X102616Y70358
X103886Y74168
X105156Y72898
X108077Y75819
X109601Y75819
X98806Y71628
X98806Y74168
X98806Y79248
X102616Y85598
X100076Y85598
X113792Y75819
X112649Y79756
X129286Y62738
X129286Y58928
X129286Y55118
X129286Y51308
X129286Y47498
X125476Y47498
X122936Y47498
X120396Y47498
X117856Y47498
X115316Y47498
X115316Y46228
X117856Y50038
X120396Y50038
X122936Y53848
X115062Y49784
X125476Y52578
X125476Y56007
X99314Y61976
X98806Y76708
X122936Y50038
X125476Y83058
X122936Y76708
X125476Y50038
X102616Y44958
X127635Y46863
X110236Y83058
X112776Y83058
X117856Y83058
X117856Y80518
X122936Y83058
X125730Y57912
X121666Y72898
X106934Y54102
X108966Y57785
X98806Y67818
X128016Y77978
X126746Y76708
X125476Y75438
X125031Y74168
X127635Y73152
X129159Y75946
X130556Y83058
X130556Y80518
X130429Y77597
X125031Y72898
X128016Y74676
X117475Y76137
X106426Y75819
X105410Y81153
X112141Y75819
X99822Y83439
X110236Y48768
X113030Y48768
X117475Y77851
X105156Y75819
X105156Y78105
X111379Y71501
X111506Y75057
X117475Y78994
X115570Y78613
X100076Y57196
X97536Y55626
X107315Y48387
X107315Y49149
X117983Y57277
X102489Y57023
X124968Y61722
X102489Y55753
X124968Y60325
X132334Y59436
X99949Y54737
X99060Y50165
X124714Y55245
X115570Y76573
X120396Y76581
X124841Y57150
X114554Y76609
X103274Y75438
X124841Y58674
X102512Y72898
X114683Y75800
X100838Y83439
X109728Y49248
X112369Y49250
X115570Y77597
X107442Y72644
X107442Y77597
X117843Y66281
X120396Y79248
X6350Y25400
X36830Y17145
X12700Y10414
X7620Y12700
X16891Y6985
X19812Y8890
X23749Y14859
X14986Y27432
X26924Y27432
X25400Y24384
X28575Y24384
X32258Y27686
X29845Y24384
X31115Y24384
X33909Y24130
X36830Y24130
X36830Y22860
X36830Y21590
X38100Y21590
X39370Y21590
X40640Y21590
X25400Y26670
X25400Y25527
X29210Y26670
X30734Y26670
X32258Y26670
X34671Y23114
X35560Y26670
X35560Y28003
X36830Y26670
X36830Y27940
X15621Y75819
X36830Y29210
X38100Y29210
X39370Y29210
X40640Y29210
X10414Y35560
X10414Y39497
X6985Y16002
X6985Y9398
X2540Y6477
X23558Y11176
X25146Y11176
X17653Y15367
X18923Y16637
X20193Y17907
X22860Y19050
X19304Y12446
X20574Y13716
X22860Y15621
X25400Y19050
X24765Y15621
X32512Y19177
X33274Y17399
X33274Y15621
X7366Y3937
X6604Y5080
X2540Y11430
X2540Y13970
X4318Y14986
X4318Y10414
X17780Y2540
X20320Y2540
X7620Y1270
X11303Y4064
X12700Y5080
X12700Y7620
X15240Y7620
X8890Y8890
X8890Y11430
X8890Y15240
X12700Y39497
X15240Y39497
X11430Y36830
X15557Y36830
X22860Y39370
X22860Y36068
X27940Y39370
X28194Y33973
X27940Y32004
X30480Y35560
X35560Y39370
X2540Y16510
X2540Y17780
X2540Y8890
X2540Y7620
X35560Y36830
X33020Y35560
X21590Y25400
X21590Y22860
X17780Y25400
X17780Y22860
X17780Y20320
X17780Y17780
X10160Y21590
X12700Y21590
X15240Y20320
X10160Y22860
X12700Y22860
X6350Y22860
X6350Y20320
X12700Y26670
X10160Y26670
X11430Y30480
X12700Y29210
X15621Y32131
X17145Y32131
X6350Y27940
X6350Y30480
X6350Y35560
X10160Y41910
X7620Y41910
X21336Y32131
X20193Y36068
X36830Y19050
X36830Y15240
X36830Y11430
X36830Y7620
X36830Y3810
X33020Y3810
X30480Y3810
X27940Y3810
X25400Y3810
X22860Y3810
X22860Y2540
X25400Y6350
X27940Y6350
X30480Y10160
X22606Y6096
X33020Y8890
X33020Y12319
X6858Y18288
X6350Y33020
X30480Y6350
X33020Y39370
X30480Y33020
X33020Y6350
X10160Y1270
X35179Y3175
X17780Y39370
X20320Y39370
X25400Y39370
X25400Y36830
X30480Y39370
X33274Y14224
X29210Y29210
X14478Y10414
X16510Y14097
X6350Y24130
X35560Y34290
X34290Y33020
X33020Y31750
X32575Y30480
X35179Y29464
X36703Y32258
X38100Y39370
X38100Y36830
X37973Y33909
X32575Y29210
X35560Y30988
X25019Y32448
X13970Y32131
X12954Y37465
X19685Y32131
X7366Y39751
X17780Y5080
X20574Y5080
X25019Y34163
X12700Y32131
X12700Y34417
X18923Y27813
X19050Y31369
X25019Y35306
X23114Y34925
X7620Y13508
X5080Y11938
X14859Y4699
X14859Y5461
X10033Y13335
X32512Y18034
X10033Y12065
X32512Y16637
X39878Y15748
X7493Y11049
X6604Y6477
X32258Y11557
X23114Y32885
X27940Y32893
X32385Y13462
X22098Y32921
X10818Y31750
X32385Y14986
X10056Y29210
X22227Y32112
X8382Y39751
X17272Y5560
X19913Y5562
X23114Y33909
X14986Y28956
X14986Y33909
X25387Y22593
X27940Y35560
X53213Y25400
X52578Y25400
X83058Y17145
X58928Y10414
X53848Y12700
X63119Y6985
X66040Y8890
X99060Y48768
M30